External Loads File
version=1
nRows=31
nColumns=13
Range=5.000000e-03-10 seconds
endheader
time 	forceRightX 	forceRightY 	forceRightZ 	pointRightX 	pointRightY 	pointRightZ 	forceLeftX 	forceLeftY 	forceLeftZ 	pointLeftX 	pointLeftY 	pointLeftZ 		
0.005000 18.856878 78.221391 -0.000000 0.340162 0.427868 -0.162513 2.991845 105.451652 -0.000000 0.071366 0.224491 -0.398027
0.010000 18.394792 78.349710 -0.000000 0.340012 0.428109 -0.162499 0.956011 103.938497 -0.000000 0.071484 0.224268 -0.398036
0.015000 18.033422 78.496554 -0.000000 0.339878 0.428326 -0.162495 -0.881027 102.550902 -0.000000 0.071597 0.224044 -0.398038
0.020000 17.821687 78.673368 -0.000000 0.339867 0.428582 -0.162594 -2.407822 101.381241 -0.000000 0.071719 0.223796 -0.398032
0.025000 17.688799 78.906344 -0.000000 0.339685 0.429129 -0.162573 -3.683997 100.467512 -0.000000 0.071857 0.223535 -0.398055
0.030000 17.780988 79.151789 -0.000000 0.339582 0.429368 -0.162587 -4.495890 99.814646 -0.000000 0.071966 0.223297 -0.398068
0.035000 17.993566 79.407228 -0.000000 0.339451 0.429555 -0.162580 -4.972360 99.386262 -0.000000 0.072082 0.223088 -0.398067
0.040000 18.274095 79.647302 -0.000000 0.339333 0.429751 -0.162571 -5.197078 99.127606 -0.000000 0.072188 0.222882 -0.398064
0.045000 18.559288 79.840139 -0.000000 0.339204 0.430007 -0.162557 -5.242533 99.000844 -0.000000 0.072297 0.222687 -0.398060
0.050000 18.816973 79.948252 -0.000000 0.339099 0.430255 -0.162564 -5.101731 99.001917 -0.000000 0.072412 0.222481 -0.398073
0.055000 19.015114 79.954097 -0.000000 0.338989 0.430472 -0.162575 -4.788546 99.116144 -0.000000 0.072510 0.222256 -0.398072
0.060000 19.132202 79.869256 -0.000000 0.338876 0.430702 -0.162593 -4.362731 99.299509 -0.000000 0.072602 0.222046 -0.398096
0.065000 19.159957 79.725919 -0.000000 0.338750 0.430938 -0.162604 -3.890035 99.518450 -0.000000 0.072716 0.221832 -0.398082
0.070000 19.103054 79.555632 -0.000000 0.338634 0.431257 -0.162618 -3.408340 99.772228 -0.000000 0.072846 0.221626 -0.398076
0.075000 19.010440 79.366743 -0.000000 0.338517 0.431438 -0.162619 -2.892710 100.070080 -0.000000 0.072965 0.221375 -0.398066
0.080000 18.890274 79.166519 -0.000000 0.338411 0.431583 -0.162646 -2.371416 100.403808 -0.000000 0.073084 0.221157 -0.398065
0.085000 18.726586 78.963805 -0.000000 0.338285 0.431779 -0.162667 -1.905234 100.741528 -0.000000 0.073203 0.220958 -0.398074
0.090000 18.533181 78.756799 -0.000000 0.338192 0.431962 -0.162703 -1.518880 101.023913 -0.000000 0.073324 0.220750 -0.398101
0.095000 18.297821 78.546482 -0.000000 0.338051 0.432169 -0.162708 -1.266554 101.178549 -0.000000 0.073451 0.220559 -0.398104
0.100000 18.027713 78.328799 -0.000000 0.337949 0.432451 -0.162714 -1.149473 101.170729 -0.000000 0.073584 0.220347 -0.398114
0.105000 17.763615 78.097469 -0.000000 0.337847 0.432707 -0.162715 -1.099956 101.024883 -0.000000 0.073703 0.220132 -0.398100
0.110000 17.522824 77.864710 -0.000000 0.337724 0.432964 -0.162716 -1.117220 100.770958 -0.000000 0.073836 0.219911 -0.398096
0.115000 17.357764 77.646133 -0.000000 0.337606 0.433139 -0.162719 -1.212462 100.403148 -0.000000 0.073960 0.219661 -0.398078
0.120000 17.282054 77.464796 -0.000000 0.337496 0.433376 -0.162725 -1.428314 99.919162 -0.000000 0.074090 0.219445 -0.398071
0.125000 17.319836 77.326043 -0.000000 0.337374 0.433583 -0.162735 -1.711663 99.364982 -0.000000 0.074244 0.219257 -0.398064
0.130000 17.452329 77.219187 -0.000000 0.337259 0.433761 -0.162739 -1.996354 98.813912 -0.000000 0.074394 0.219049 -0.398079
0.135000 17.621789 77.117242 -0.000000 0.337127 0.433935 -0.162735 -2.242898 98.325818 -0.000000 0.074550 0.218829 -0.398073
0.140000 17.761802 76.993811 -0.000000 0.336993 0.434207 -0.162729 -2.456036 97.924599 -0.000000 0.074695 0.218615 -0.398088
0.145000 17.869624 76.838926 -0.000000 0.336886 0.434451 -0.162741 -2.633582 97.601279 -0.000000 0.074854 0.218414 -0.398083
0.150000 17.945648 76.674216 -0.000000 0.336768 0.434649 -0.162776 -2.804403 97.347551 -0.000000 0.074989 0.218209 -0.398100
0.155000 17.972945 76.532943 -0.000000 0.336651 0.434898 -0.162782 -2.996181 97.176879 -0.000000 0.075119 0.217966 -0.398077
